PathFileType	4	(X/Y/Z)	C:\Users\°ÂÌØÂü\Desktop\20201223\Trimmed_bx_n_5_501.trc
DataRate	CameraRate	NumFrames	NumMarkers	Units	OrigDataRate	OrigDataStartFrame	OrigNumFrames
50.00	50.00	      8	43	mm	50.00	1	      1445
Frame#	Time	Top.Head			R.Acromium			L.Acromium			Sternum			R.ASIS			L.ASIS			V.Sacral			R.Thigh.Upper			R.Thigh.Front			R.Thigh.Rear			R.Knee.Lat			R.Knee.Med			R.Shank.Upper			R.Shank.Front			R.Shank.Rear			R.Ankle.Lat			R.Midfoot.Lat			R.Toe.Lat			R.Toe.Tip			R.Toe.Med			R.Ankle.Med			R.Midfoot.Sup			R.Heel			L.Thigh.Upper			L.Thigh.Front			L.Thigh.Rear			L.Knee.Lat			L.Knee.Med			L.Shank.Upper			L.Shank.Front			L.Shank.Rear			L.Ankle.Lat			L.Midfoot.Lat			L.Toe.Lat			L.Toe.Tip			L.Toe.Med			L.Ankle.Med			L.Midfoot.Sup			L.Heel			origin1 front left			origin2 front right			origin 3 back right			origin 4 back leftt			
		X1	Y1	Z1	X2	Y2	Z2	X3	Y3	Z3	X4	Y4	Z4	X5	Y5	Z5	X6	Y6	Z6	X7	Y7	Z7	X8	Y8	Z8	X9	Y9	Z9	X10	Y10	Z10	X11	Y11	Z11	X12	Y12	Z12	X13	Y13	Z13	X14	Y14	Z14	X15	Y15	Z15	X16	Y16	Z16	X17	Y17	Z17	X18	Y18	Z18	X19	Y19	Z19	X20	Y20	Z20	X21	Y21	Z21	X22	Y22	Z22	X23	Y23	Z23	X24	Y24	Z24	X25	Y25	Z25	X26	Y26	Z26	X27	Y27	Z27	X28	Y28	Z28	X29	Y29	Z29	X30	Y30	Z30	X31	Y31	Z31	X32	Y32	Z32	X33	Y33	Z33	X34	Y34	Z34	X35	Y35	Z35	X36	Y36	Z36	X37	Y37	Z37	X38	Y38	Z38	X39	Y39	Z39	X40	Y40	Z40	X41	Y41	Z41	X42	Y42	Z42	X43	Y43	Z43	

1	0.000	-461.88571	277.90576	1809.37756	-596.34540	80.33560	1533.24475	-611.09808	444.33127	1524.84912	-526.68085	262.56134	1346.33862	-570.66577	134.59334	1034.60315	-543.01550	358.57285	1036.60950	-759.06506	260.76279	1061.45410	-648.91803	82.82778	835.23175	-557.66895	138.01405	816.25073	-647.16864	94.65212	724.77008	-678.57013	118.04600	604.46698	-653.79181	224.75896	560.97394	-706.50037	117.41344	538.45361	-627.69690	165.34549	524.49902	-713.82874	109.34862	486.79950	-697.51947	137.47511	213.10381	-624.05664	75.32813	166.68604	-577.61407	52.03984	161.80977	-501.58704	94.01312	159.91920	-542.80640	145.98903	162.57089	-648.02197	214.40947	218.85799	-604.88385	186.48312	169.04694	-732.08313	203.88309	168.99319	-631.71466	442.93549	854.77081	-549.46771	390.46454	816.43713	-652.92084	430.59177	740.01837	-666.96411	407.96796	604.84808	-651.00812	297.66995	569.68835	-681.73761	410.48734	558.77356	-622.71570	355.95001	535.21021	-734.18384	411.39505	493.39597	-681.95703	407.21442	214.34637	-588.86481	461.87277	163.77621	-551.04169	474.19574	158.68636	-489.27347	427.16901	166.99847	-526.45209	384.12427	177.08392	-643.15106	318.41693	208.95508	-593.56531	340.66986	169.84409	-731.74481	334.95963	161.80269	-443.81403	448.77621	147.05295	-450.81400	75.29675	142.81508	-806.12897	82.16263	140.96822	-800.01788	456.36020	144.69446	
2	0.020	-455.56396	277.82559	1806.41968	-592.23022	80.41725	1532.78137	-607.22180	444.21411	1524.43433	-524.84271	262.50800	1345.69983	-572.76178	134.57709	1034.23572	-545.04187	358.41809	1036.20923	-760.88562	260.82440	1062.32214	-651.23541	82.91691	835.23383	-559.83234	138.00354	816.27295	-649.05585	94.45755	724.77673	-679.91711	118.02114	604.45807	-655.21643	224.81746	560.94110	-707.61975	117.42694	538.29663	-628.75525	165.40106	524.62903	-714.80652	109.27040	486.70013	-697.75629	137.47629	212.78694	-624.07336	75.26116	166.60008	-577.60724	52.02666	161.83073	-501.58405	94.03294	159.94894	-542.82062	145.96776	162.58878	-648.09375	214.22029	219.05695	-604.96564	186.45216	169.06024	-732.16315	203.82761	169.04982	-633.71912	443.09262	854.81628	-551.43805	390.39413	816.45258	-654.56653	430.76727	739.87866	-668.18719	408.07050	604.70367	-652.49963	297.82480	569.57648	-682.92969	410.59146	558.64905	-623.80933	356.01953	535.29932	-735.27258	411.54553	493.11411	-682.11926	407.34183	214.31665	-588.84131	461.87354	163.77002	-551.04993	474.20172	158.66368	-489.36505	427.03439	167.00536	-526.50787	384.16061	177.08653	-643.25696	318.53635	209.05035	-593.57764	340.62488	169.92343	-731.89355	334.99460	161.96208	-443.83850	448.74667	146.92120	-450.80826	75.31795	142.84804	-806.14557	82.18369	140.99289	-799.99646	456.40152	144.70087	
3	0.040	-449.22015	277.74200	1803.43347	-588.07574	80.49744	1532.28162	-603.30475	444.09750	1523.97510	-523.00153	262.45276	1345.01245	-574.88025	134.56230	1033.86096	-547.10596	358.27866	1035.79321	-762.73425	260.88101	1063.18701	-653.57391	83.00461	835.23505	-562.02240	137.99678	816.29620	-650.96326	94.26970	724.77899	-681.28473	117.99727	604.44482	-656.65247	224.87410	560.90753	-708.75580	117.43994	538.14374	-629.83380	165.45502	524.75922	-715.79767	109.19332	486.59991	-697.99237	137.47208	212.48593	-624.08948	75.19741	166.51645	-577.60144	52.01147	161.84918	-501.58231	94.05564	159.97661	-542.83606	145.94722	162.60724	-648.17450	214.03535	219.24834	-605.04773	186.41084	169.08401	-732.24390	203.77255	169.10349	-635.76404	443.25082	854.85596	-553.44397	390.32925	816.46710	-656.24243	430.94775	739.74072	-669.43622	408.17432	604.56006	-654.00427	297.97620	569.46869	-684.14001	410.69376	558.52441	-624.92297	356.08771	535.38348	-736.37170	411.69788	492.82925	-682.27960	407.46420	214.28152	-588.82117	461.87708	163.76077	-551.05823	474.20929	158.64061	-489.45547	426.90125	167.01399	-526.56213	384.19766	177.09180	-643.37042	318.65656	209.14107	-593.59650	340.58661	169.99956	-732.03534	335.03049	162.11288	-443.86301	448.71783	146.79547	-450.80310	75.33806	142.87929	-806.16144	82.20331	141.01588	-799.97278	456.44543	144.70976	
4	0.060	-442.81302	277.65405	1800.44592	-583.84686	80.57466	1531.71167	-599.31061	443.98212	1523.43054	-521.17664	262.39197	1344.17859	-577.04083	134.55099	1033.47205	-549.24030	358.16888	1035.34753	-764.63531	260.92825	1064.04565	-655.95178	83.08965	835.23444	-564.26245	137.99783	816.32135	-652.90839	94.09486	724.77301	-682.69098	117.97540	604.42340	-658.10968	224.92740	560.87256	-709.92285	117.45194	537.99847	-630.95032	165.50615	524.88983	-716.81372	109.11839	486.49820	-698.22687	137.45767	212.21513	-624.10437	75.13958	166.43735	-577.59760	51.99238	161.86267	-501.58267	94.08374	160.00020	-542.85388	145.92819	162.62668	-648.27246	213.85873	219.42509	-605.13049	186.34998	169.12732	-732.32599	203.71831	169.15147	-637.88531	443.41113	854.88458	-555.51697	390.27493	816.47980	-657.97534	431.13782	739.60577	-670.73389	408.28049	604.41779	-655.53314	298.12106	569.36847	-685.38464	410.79297	558.39954	-626.07410	356.15347	535.45844	-737.49005	411.85367	492.53894	-682.43628	407.57700	214.23663	-588.80719	461.88602	163.74570	-551.06641	474.21985	158.61684	-489.54324	426.77097	167.02563	-526.61340	384.23581	177.10172	-643.49799	318.77798	209.22304	-593.62787	340.56125	170.06944	-732.16382	335.06815	162.24733	-443.88754	448.69031	146.68103	-450.79907	75.35610	142.90735	-806.17590	82.22024	141.03578	-799.94476	456.49399	144.72316	
5	0.080	-436.26923	277.56476	1797.57776	-579.51654	80.64731	1531.04285	-595.21179	443.86887	1522.76746	-519.42609	262.31931	1343.01758	-579.25824	134.54620	1033.06372	-551.46729	358.10114	1034.86194	-766.60638	260.96268	1064.89502	-658.38135	83.17120	835.23083	-566.56921	138.01112	816.34882	-654.90363	93.93854	724.75604	-684.14917	117.95654	604.39056	-659.59515	224.97656	560.83533	-711.13141	117.46246	537.86346	-632.11761	165.55406	525.02106	-717.86267	109.04630	486.39441	-698.45850	137.42931	211.98613	-624.11768	75.08948	166.36476	-577.59631	51.96781	161.86896	-501.58530	94.11907	160.01784	-542.87463	145.91154	162.64700	-648.39465	213.69415	219.58128	-605.21429	186.26263	169.19672	-732.40967	203.66521	169.19153	-640.11029	443.57428	854.89807	-557.68097	390.23514	816.49011	-659.78540	431.34116	739.47455	-672.09723	408.38962	604.27734	-657.09381	298.25696	569.27808	-686.67523	410.88855	558.27429	-627.27594	356.21603	535.52130	-738.63416	412.01425	492.24130	-682.58771	407.67685	214.17944	-588.80176	461.90247	163.72247	-551.07440	474.23462	158.59218	-489.62659	426.64481	167.04062	-526.66022	384.27472	177.11714	-643.64435	318.90042	209.29271	-593.67676	340.55420	170.13033	-732.27386	335.10818	162.35918	-443.91190	448.66452	146.58170	-450.79651	75.37126	142.93098	-806.18860	82.23367	141.05145	-799.91125	456.54813	144.74219	
6	0.100	-429.48209	277.48178	1795.05127	-575.06854	80.71382	1530.25305	-590.99219	443.75903	1521.96191	-517.85022	262.22556	1341.26196	-581.54059	134.55206	1032.63220	-553.79675	358.08475	1034.33105	-768.65649	260.98230	1065.73242	-660.86761	83.24902	835.22321	-568.95081	138.04146	816.37885	-656.95465	93.80511	724.72668	-685.66632	117.94170	604.34418	-661.11206	225.02156	560.79529	-712.38660	117.47099	537.73999	-633.34222	165.59927	525.15332	-718.94818	108.97737	486.28830	-698.68530	137.38474	211.80678	-624.12897	75.04770	166.30037	-577.59790	51.93660	161.86607	-501.58945	94.16253	160.02792	-542.89856	145.89827	162.66766	-648.54602	213.54477	219.71251	-605.29956	186.14507	169.29536	-732.49475	203.61343	169.22211	-642.45502	443.74084	854.89368	-559.94965	390.21249	816.49786	-661.68396	431.56021	739.34705	-673.53528	408.50186	604.13879	-658.68896	298.38226	569.19806	-688.01758	410.98108	558.14844	-628.53552	356.27509	535.57098	-739.80695	412.18045	491.93555	-682.73273	407.76184	214.10977	-588.80646	461.92798	163.68959	-551.08185	474.25439	158.56664	-489.70319	426.52390	167.05818	-526.70111	384.31329	177.13747	-643.81171	319.02274	209.34753	-593.74646	340.56961	170.17999	-732.36206	335.15088	162.44435	-443.93558	448.64075	146.49951	-450.79565	75.38297	142.94942	-806.19897	82.24328	141.06230	-799.87183	456.60745	144.76694	
7	0.120	-422.32535	277.41638	1793.16003	-570.49902	80.77290	1529.32849	-586.64880	443.65427	1521.00146	-516.58014	262.09979	1338.59094	-583.88873	134.57356	1032.17554	-556.22455	358.12509	1033.75513	-770.78497	260.98669	1066.55493	-663.40735	83.32349	835.21039	-571.40564	138.09355	816.41119	-659.05939	93.69762	724.68500	-687.24200	117.93175	604.28326	-662.65906	225.06311	560.75189	-713.68738	117.47692	537.62799	-634.62378	165.64302	525.28705	-720.06860	108.91139	486.17963	-698.90515	137.32323	211.68053	-624.13806	75.01366	166.24553	-577.60217	51.89810	161.85257	-501.59354	94.21399	160.02922	-542.92523	145.88936	162.68761	-648.72894	213.41286	219.81648	-605.38654	185.99716	169.42265	-732.58069	203.56306	169.24243	-644.92261	443.91089	854.87042	-562.32477	390.20807	816.50342	-663.67224	431.79593	739.22247	-675.04846	408.61676	604.00183	-660.31573	298.49634	569.12756	-689.41101	411.07196	558.02161	-629.85303	356.33093	535.60828	-741.00757	412.35257	491.62207	-682.87036	407.83179	214.02995	-588.82166	461.96329	163.64648	-551.08838	474.27948	158.54044	-489.77039	426.40915	167.07635	-526.73486	384.34961	177.16071	-643.99933	319.14288	209.38631	-593.83856	340.61008	170.21680	-732.42682	335.19629	162.50111	-443.95804	448.61899	146.43463	-450.79654	75.39093	142.96227	-806.20691	82.24929	141.06827	-799.82703	456.67026	144.79640	
8	0.140	-414.68192	277.38062	1792.19775	-565.81689	80.82378	1528.26282	-582.19171	443.55676	1519.88416	-515.75037	261.93185	1334.70117	-586.29663	134.61598	1031.69360	-558.73395	358.22299	1033.13965	-772.98260	260.97708	1067.36011	-665.98938	83.39560	835.19128	-573.92267	138.17160	816.44537	-661.20850	93.61773	724.63245	-688.86884	117.92732	604.20819	-664.23029	225.10226	560.70490	-715.02698	117.47948	537.52594	-635.95483	165.68700	525.42230	-721.21747	108.84763	486.06821	-699.11523	137.24570	211.60645	-624.14465	74.98570	166.20128	-577.60858	51.85227	161.82771	-501.59546	94.27229	160.02104	-542.95361	145.88571	162.70554	-648.94269	213.29955	219.89337	-605.47516	185.82269	169.57436	-732.66614	203.51389	169.25256	-647.50330	444.08411	854.82904	-564.79669	390.22144	816.50763	-665.74158	432.04758	739.09930	-676.62848	408.73343	603.86621	-661.96606	298.59940	569.06445	-690.84839	411.16342	557.89368	-631.22192	356.38434	535.63580	-742.23090	412.53027	491.30234	-683.00018	407.88824	213.94444	-588.84680	462.00833	163.59377	-551.09363	474.30975	158.51398	-489.82529	426.30133	167.09225	-526.76044	384.38129	177.18373	-644.20355	319.25830	209.40941	-593.95227	340.67636	170.23993	-732.46838	335.24408	162.53020	-443.97864	448.59915	146.38550	-450.79895	75.39510	142.96960	-806.21234	82.25237	141.06973	-799.77814	456.73392	144.82872	
